<?xml version="1.0" encoding="utf-8"?>
<!-- Generator: Adobe Illustrator 24.1.3, SVG Export Plug-In . SVG Version: 6.00 Build 0)  -->
<svg version="1.1" id="Capa_1" xmlns="http://www.w3.org/2000/svg" xmlns:xlink="http://www.w3.org/1999/xlink" x="0px" y="0px"
	 viewBox="0 0 1280 800" style="enable-background:new 0 0 1280 800;" xml:space="preserve">
<style type="text/css">
	.st0{fill:#FFFFFF;stroke:#000000;stroke-miterlimit:10;}
</style>
<g>
	<path class="st0" d="M522.4,247.72l-15.97,85.96c-0.09,0.53-0.45,0.98-0.95,1.18c-2.83,1.23-7.52,1.21-11.43,2.33
		c-7.98,2.3-16.79,3.16-26.46,2.57c-0.65-0.03-1.13-0.64-1.01-1.29l31.93-171.91c0.11-0.59,0.86-0.81,1.24-0.36l155.38,174.49
		c0.58,0.64,0.34,1.66-0.47,1.99l-4.96,2.05c-0.75,0.31-1.59,0.23-2.27-0.17c-14.19-8.58-28.95-11.92-44.25-10.01
		c-1.77,0.22-3.54-0.45-4.73-1.77l-75.79-85.14C522.59,247.55,522.43,247.6,522.4,247.72z"/>
	<path class="st0" d="M138.36,485.45h-37.55c-0.47,0-0.84-0.37-0.84-0.84V287.26c0-0.47,0.37-0.84,0.84-0.84h37.86
		c0.47,0,0.84,0.37,0.84,0.84V364c0,0.47,0.37,0.84,0.84,0.84h86.52c0.47,0,0.84-0.37,0.84-0.84v-76.62c0-0.47,0.37-0.84,0.84-0.84
		h38.48c0.47,0,0.84,0.37,0.84,0.84v197.28c0,0.47-0.37,0.84-0.84,0.84h-38.37c-0.47,0-0.84-0.37-0.84-0.84v-83.02
		c0-0.47-0.37-0.84-0.84-0.84h-86.94c-0.47,0-0.84,0.37-0.84,0.84v82.98C139.19,485.08,138.82,485.45,138.36,485.45z"/>
	<path class="st0" d="M379.99,409.04c0.72,0.12,1.38-0.42,1.38-1.15c0.03-12.03-4.4-24.19-17.2-28.05
		c-18.47-5.55-37.58-0.64-53.56,8.85c-0.53,0.31-1.21,0.08-1.45-0.48l-9.42-22.84c-0.37-0.89-0.16-1.93,0.56-2.6
		c1.51-1.41,3.54-2.72,6.14-3.92c25.12-11.64,57.29-15.49,81.58-3.39c13.62,6.79,22.31,17.93,26.07,33.4
		c1.49,6.11,2.1,17.75,1.82,34.93c-0.26,15.98-0.06,35.88,0.58,59.72c0.03,0.96-0.76,1.77-1.73,1.77h-29.68
		c-1.13,0-2.07-0.93-2.07-2.07v-9.62c0-1.23-1.41-1.91-2.38-1.17c-0.86,0.67-2.41,2.05-4.66,4.15c-12.9,12.05-31.7,14.58-48.4,12.1
		c-26.1-3.89-43.61-26.46-37.52-52.83c3.53-15.33,15.02-22.57,29.87-28.11c14.16-5.29,33.96-4.17,48.52-1.91
		C372.47,406.44,376.74,408.43,379.99,409.04z M380.83,430.23c-14.23-4.45-39.05-9.61-51.38,0.68c-6.59,5.5-8.01,14.66-3.95,21.95
		c7.2,12.94,26.51,12.89,38.54,8.58c13.91-4.99,19.78-15.08,17.57-30.3C381.55,430.73,381.25,430.37,380.83,430.23z"/>
	<path class="st0" d="M475.08,374.88c8.41-18.5,23.17-27.32,44.25-26.45c0.5,0.02,0.9,0.44,0.9,0.93v33.82
		c0,0.56-0.48,0.99-1.04,0.93c-25.58-3.02-43.55,13.17-43.91,38.65c-0.14,10.49-0.16,31.06-0.02,61.69c0,0.64-0.51,1.15-1.13,1.15
		h-32.26c-0.34,0-0.62-0.28-0.62-0.62V352.74c0-0.59,0.48-1.07,1.07-1.07h30.58c0.72,0,1.31,0.59,1.31,1.31v21.7
		C474.21,375.18,474.88,375.33,475.08,374.88z"/>
	<path class="st0" d="M959.73,367.99c0,0.64,0.81,0.89,1.18,0.37c9.16-12.72,21.64-19.4,37.42-20.07
		c17.57-0.73,33.19,4.42,43.52,19.28c5.77,8.32,8.71,17.65,8.78,28c0.2,26.23,0.28,55.92,0.26,89.05c-0.02,0.5-0.4,0.9-0.9,0.9
		h-32.31c-0.5,0-0.92-0.4-0.9-0.9c0.19-35.32,0.2-61.18,0.05-77.57c-0.14-14.18-6.05-23.2-17.74-27.04
		c-8.07-2.66-18.55-1.71-25.54,2.8c-10.34,6.69-11.94,17.51-11.83,29.4c0.23,22.99,0.3,47.2,0.22,72.61c0,0.42-0.33,0.75-0.75,0.75
		H928.2c-0.3,0-0.54-0.23-0.54-0.53V352.03c0-0.3,0.25-0.53,0.54-0.53h30.29c0.68,0,1.24,0.56,1.24,1.24V367.99z"/>
	<path class="st0" d="M569.99,368.32c1.68-2.25,3.73-5.46,6.42-7.85c8.19-7.31,18.11-11.23,29.76-11.75
		c18.59-0.86,35.82,4.99,44.7,21.56c0.16,0.28,0.56,0.3,0.73,0.03c14.85-22.57,45.34-27.24,68.94-16.57
		c13.98,6.33,21.33,21.61,23.45,36.96c0.34,2.53,0.53,9.39,0.58,20.57c0.14,38.23,0.2,62.73,0.22,73.48c0,0.4-0.33,0.73-0.73,0.73
		h-32.66c-0.4,0-0.73-0.33-0.73-0.73c-0.12-25.58-0.2-50.65-0.22-75.23c-0.02-18.42-7.99-32.11-28.81-30.33
		c-16.85,1.43-23.38,14.44-23.35,30.33c0.06,32.76,0.17,57.88,0.33,75.4c0,0.48-0.4,0.89-0.89,0.89h-32.4
		c-0.48,0-0.89-0.4-0.87-0.89c0.17-20.35,0.17-45.62,0.02-75.79c-0.11-18.39-9.51-31.72-29.38-29.74
		c-12.69,1.26-20.41,9.14-23.38,21.67c-0.33,1.43-0.5,6.56-0.51,15.38c-0.02,41.06-0.02,63.96,0,68.69c0,0.36-0.28,0.64-0.64,0.64
		h-32.15c-0.54,0-1-0.45-1-1V352.79c0-0.64,0.53-1.17,1.17-1.17h29.46c0.47,0,0.86,0.37,0.86,0.84v15.49
		C568.87,368.55,569.64,368.8,569.99,368.32z"/>
	<path class="st0" d="M832.79,348.48c41.17-1.99,73.38,26.01,75.36,67.07c1.96,41.08-27.41,72.03-68.58,74
		c-41.17,1.97-73.37-26.01-75.34-67.09C762.25,381.4,791.62,350.46,832.79,348.48z M834.31,378.27
		c-21.09,0.95-37.36,20.03-36.34,42.58c1.02,22.57,18.96,40.07,40.05,39.11c21.09-0.95,37.36-20.03,36.34-42.58
		C873.34,394.81,855.39,377.31,834.31,378.27z"/>
	<path class="st0" d="M1131.33,439.83c0.16,0.4,0.73,0.39,0.87-0.02l33.4-93.92c0.2-0.58,0.75-0.96,1.37-0.96h32.98
		c0.56,0,0.95,0.56,0.76,1.09c-1.87,5.29-3.53,9.75-4.98,13.4c-33.85,85.53-51.57,130.35-53.2,134.48
		c-4.85,12.2-10.37,21.97-22.4,28.65c-15.39,8.57-34.97,6.11-50.3-2.16c-0.73-0.39-1.03-1.26-0.72-2.02l9.9-23.4
		c0.3-0.7,1.15-0.95,1.76-0.53c5.97,4.04,15.56,6.61,22.11,3.09c5.66-3.03,9.42-11.4,11.38-17.48c0.26-0.84,0.23-1.74-0.11-2.55
		l-53.95-130.71c-0.34-0.84,0.26-1.77,1.18-1.77h32.88c0.75,0,1.41,0.45,1.68,1.15L1131.33,439.83z"/>
	<path class="st0" d="M461.13,574.46c-0.09,0.53,0.42,0.96,0.92,0.78c54.15-19,108.15-35.26,162-48.79
		c45.06-11.32,91.37-20.35,138.01-18.95c29.87,0.9,58.35,7.14,85.45,18.69c11.55,4.93,24.21,10.93,37.97,17.97
		c9.98,5.12,22.9,11.13,38.74,18.03c56.75,24.7,123.43,35.84,178.34-0.7c12.73-8.47,24.21-18.42,34.42-29.84
		c6.19-6.92,11.8-15.67,19.23-26.52c0.12-0.19,0.39-0.2,0.54-0.05l0.64,0.62c0.02,0.02,0.02,0.03,0,0.05
		c-8.15,16.93-17.97,31.65-29.49,44.2c-9.08,9.9-20.18,18.87-33.32,26.91C1060.35,597.83,1016,602.2,977,594.39
		c-24.89-4.98-47.23-11.75-67.06-20.34c-0.95-0.42-21.07-9.17-60.34-26.27c-29.45-12.81-60.31-18.5-92.6-17.07
		c-29.29,1.29-57.82,7.07-87.5,14.77c-21.41,5.55-43.14,11.94-65.22,19.17c-64.32,21.07-128.5,44.17-192.54,69.34
		c-0.42,0.17-0.87-0.2-0.79-0.65l24.81-133.52c0.16-0.89,0.93-1.52,1.83-1.52h35.03c0.82,0,1.46,0.75,1.32,1.57L461.13,574.46z"/>
</g>
</svg>
